<?xml version="1.0" encoding="UTF-8" standalone="no"?>
<!-- Created with Inkscape (http://www.inkscape.org/) -->

<svg
   width="17.454mm"
   height="17.454mm"
   viewBox="0 0 17.454 17.454"
   version="1.1"
   id="svg10264"
   xmlns:inkscape="http://www.inkscape.org/namespaces/inkscape"
   xmlns:sodipodi="http://sodipodi.sourceforge.net/DTD/sodipodi-0.dtd"
   xmlns="http://www.w3.org/2000/svg"
   xmlns:svg="http://www.w3.org/2000/svg">
  <sodipodi:namedview
     id="namedview10266"
     pagecolor="#ffffff"
     bordercolor="#000000"
     borderopacity="0.25"
     inkscape:showpageshadow="2"
     inkscape:pageopacity="0.0"
     inkscape:pagecheckerboard="0"
     inkscape:deskcolor="#d1d1d1"
     inkscape:document-units="mm"
     showgrid="false" />
  <defs
     id="defs10261" />
  <g
     inkscape:label="Layer 1"
     inkscape:groupmode="layer"
     id="layer1"
     transform="translate(-118.30538,-242.67928)">
    <g
       aria-label="C"
       id="text5906"
       style="font-weight:bold;font-size:14.1111px;font-family:Montserrat;-inkscape-font-specification:'Montserrat Bold';text-align:center;text-anchor:middle;stroke-linecap:round;stroke-linejoin:round;stroke-miterlimit:10"
       transform="translate(65.468633,198.08296)">
      <path
         d="m 58.184853,55.8711 q -1.142999,0 -2.130776,-0.366888 -0.973666,-0.381 -1.693332,-1.072444 -0.719666,-0.691444 -1.128888,-1.622777 -0.395111,-0.931332 -0.395111,-2.046109 0,-1.114777 0.395111,-2.04611 0.409222,-0.931332 1.128888,-1.622776 0.733777,-0.691444 1.707443,-1.058333 0.973666,-0.380999 2.130776,-0.380999 1.28411,0 2.31422,0.451555 1.044222,0.437444 1.749777,1.298221 l -1.467555,1.354666 q -0.507999,-0.578555 -1.128888,-0.860777 -0.620888,-0.296334 -1.354665,-0.296334 -0.691444,0 -1.269999,0.225778 -0.578555,0.225778 -1.001888,0.649111 -0.423333,0.423333 -0.663222,1.001888 -0.225778,0.578555 -0.225778,1.28411 0,0.705555 0.225778,1.28411 0.239889,0.578555 0.663222,1.001888 0.423333,0.423333 1.001888,0.649111 0.578555,0.225777 1.269999,0.225777 0.733777,0 1.354665,-0.282222 0.620889,-0.296333 1.128888,-0.888999 l 1.467555,1.354666 q -0.705555,0.860777 -1.749777,1.312332 -1.03011,0.451555 -2.328331,0.451555 z"
         id="path10175" />
    </g>
    <g
       aria-label="G"
       transform="matrix(-1,0,0,1,65.468633,198.08296)"
       id="text5964"
       style="font-weight:bold;font-size:14.1111px;font-family:Montserrat;-inkscape-font-specification:'Montserrat Bold';text-align:center;text-anchor:middle;stroke-linecap:round;stroke-linejoin:round;stroke-miterlimit:10">
      <path
         d="m -64.900064,61.328364 q -1.171221,0 -2.158998,-0.366888 -0.973666,-0.381 -1.707443,-1.072444 -0.719666,-0.691444 -1.128888,-1.622777 -0.395111,-0.931332 -0.395111,-2.046109 0,-1.114777 0.395111,-2.04611 0.409222,-0.931332 1.142999,-1.622776 0.733777,-0.691444 1.721554,-1.058333 0.987777,-0.380999 2.173109,-0.380999 1.312333,0 2.356554,0.437444 1.058333,0.437444 1.777999,1.269999 l -1.467555,1.354665 q -0.536221,-0.564444 -1.171221,-0.832555 -0.634999,-0.282222 -1.382888,-0.282222 -0.719666,0 -1.312332,0.225778 -0.592666,0.225778 -1.03011,0.649111 -0.423333,0.423333 -0.663222,1.001888 -0.225778,0.578555 -0.225778,1.28411 0,0.691444 0.225778,1.269999 0.239889,0.578555 0.663222,1.015999 0.437444,0.423333 1.015999,0.649111 0.592666,0.225777 1.298221,0.225777 0.677333,0 1.312332,-0.211666 0.649111,-0.225778 1.255888,-0.747889 l 1.298221,1.650999 q -0.804332,0.606778 -1.876776,0.931333 -1.058332,0.324555 -2.116665,0.324555 z m 1.904999,-1.552221 v -3.711219 h 2.088442 v 4.007552 z"
         style="fill:#ffd700"
         id="path10172" />
    </g>
  </g>
</svg>
